<svg width="150" height="150" viewBox="0 0 150 150" fill="none" xmlns="http://www.w3.org/2000/svg">
<path fill-rule="evenodd" clip-rule="evenodd" d="M75 2C33.5625 2 0 35.5625 0 77C0 110.188 21.4687 138.219 51.2812 148.156C55.0312 148.812 56.4375 146.562 56.4375 144.594C56.4375 142.812 56.3438 136.906 56.3438 130.625C37.5 134.094 32.625 126.031 31.125 121.812C30.2812 119.656 26.625 113 23.4375 111.219C20.8125 109.812 17.0625 106.344 23.3438 106.25C29.25 106.156 33.4688 111.687 34.875 113.937C41.625 125.281 52.4062 122.094 56.7188 120.125C57.375 115.25 59.3438 111.969 61.5 110.094C44.8125 108.219 27.375 101.75 27.375 73.0625C27.375 64.9062 30.2812 58.1562 35.0625 52.9062C34.3125 51.0312 31.6875 43.3438 35.8125 33.0312C35.8125 33.0312 42.0938 31.0625 56.4375 40.7188C62.4375 39.0312 68.8125 38.1875 75.1875 38.1875C81.5625 38.1875 87.9375 39.0312 93.9375 40.7188C108.281 30.9688 114.562 33.0312 114.562 33.0312C118.688 43.3438 116.062 51.0312 115.312 52.9062C120.094 58.1562 123 64.8125 123 73.0625C123 101.844 105.469 108.219 88.7812 110.094C91.5 112.438 93.8438 116.938 93.8438 123.969C93.8438 134 93.75 142.062 93.75 144.594C93.75 146.562 95.1562 148.906 98.9062 148.156C128.531 138.219 150 110.094 150 77C150 35.5625 116.438 2 75 2Z" fill="#5352ED"/>
</svg>
