<svg width="25" height="30" viewBox="0 0 25 30" fill="none" xmlns="http://www.w3.org/2000/svg">
<path d="M22.0312 3.75H16.875V2.8125C16.875 1.25918 15.6158 0 14.0625 0H10.3125C8.75918 0 7.5 1.25918 7.5 2.8125V3.75H2.34375C1.04936 3.75 0 4.79936 0 6.09375V7.96875C0 8.48654 0.419707 8.90625 0.9375 8.90625H23.4375C23.9553 8.90625 24.375 8.48654 24.375 7.96875V6.09375C24.375 4.79936 23.3256 3.75 22.0312 3.75ZM9.375 2.8125C9.375 2.2957 9.7957 1.875 10.3125 1.875H14.0625C14.5793 1.875 15 2.2957 15 2.8125V3.75H9.375V2.8125Z" fill="#ED254E" fill-opacity="0.8"/>
<path d="M1.77928 10.7812C1.612 10.7812 1.4787 10.9211 1.48667 11.0882L2.26011 27.3211C2.33159 28.8234 3.56557 30 5.06909 30H19.3062C20.8097 30 22.0437 28.8234 22.1152 27.3211L22.8886 11.0882C22.8966 10.9211 22.7633 10.7812 22.596 10.7812H1.77928ZM15.9376 13.125C15.9376 12.607 16.3572 12.1875 16.8751 12.1875C17.3931 12.1875 17.8126 12.607 17.8126 13.125V25.3125C17.8126 25.8305 17.3931 26.25 16.8751 26.25C16.3572 26.25 15.9376 25.8305 15.9376 25.3125V13.125ZM11.2501 13.125C11.2501 12.607 11.6697 12.1875 12.1876 12.1875C12.7056 12.1875 13.1251 12.607 13.1251 13.125V25.3125C13.1251 25.8305 12.7056 26.25 12.1876 26.25C11.6697 26.25 11.2501 25.8305 11.2501 25.3125V13.125ZM6.56264 13.125C6.56264 12.607 6.98218 12.1875 7.50014 12.1875C8.01811 12.1875 8.43764 12.607 8.43764 13.125V25.3125C8.43764 25.8305 8.01811 26.25 7.50014 26.25C6.98218 26.25 6.56264 25.8305 6.56264 25.3125V13.125Z" fill="#ED254E" fill-opacity="0.8"/>
</svg>
